<svg width="424" height="424" viewBox="0 0 424 424" fill="none" xmlns="http://www.w3.org/2000/svg">
<path d="M9.60729 0.0116504C4.14453 0.526487 -0.0225947 5.12458 0.00106457 10.6114V84.8093C-0.0529984 88.632 1.95544 92.1876 5.2573 94.1147C8.55917 96.0418 12.6429 96.0418 15.9448 94.1147C19.2466 92.1876 21.2551 88.632 21.201 84.8093V36.1169L81.9852 96.8996C86.7215 91.6269 91.7812 86.7266 97.0571 81.9938L36.2729 21.2111H84.8009C88.6236 21.2651 92.1793 19.2567 94.1064 15.955C96.0336 12.6532 96.0336 8.56954 94.1064 5.26776C92.1793 1.96597 88.6236 -0.0424112 84.8009 0.0116504H10.601C10.27 -0.00388347 9.93836 -0.00388347 9.60729 0.0116504ZM97.0571 81.9938L198.254 183.188C202.326 187.061 202.371 194.429 198.419 198.425C194.468 202.42 187.265 202.289 183.347 198.259L81.9852 96.8996C50.7944 131.624 31.801 177.556 31.801 227.905C31.801 336.205 119.598 424 227.9 424C336.203 424 424 336.205 424 227.905C424 119.605 336.203 31.8108 227.9 31.8108C177.594 31.8108 131.771 50.8525 97.0571 81.9938Z" fill="black"/>
</svg>
